<?xml version="1.0" encoding="iso-8859-1"?>
<!-- Generator: Adobe Illustrator 19.0.0, SVG Export Plug-In . SVG Version: 6.00 Build 0)  -->
<svg version="1.1" width="2rem" height="2rem" id="Layer_1" xmlns="http://www.w3.org/2000/svg" xmlns:xlink="http://www.w3.org/1999/xlink" x="0px" y="0px"
	 viewBox="0 0 510.956 510.956" style="enable-background:new 0 0 510.956 510.956;" xml:space="preserve">
<path style="fill:#FABA81;" d="M402.862,225.825v106.814c0,39.724-32.662,72.386-72.386,72.386h-31.779
	c-39.724,0-72.386-32.662-72.386-72.386V225.825c-26.483,16.772-44.138,46.786-44.138,80.331V422.68
	c0,48.552,39.724,88.276,88.276,88.276h88.276c48.552,0,88.276-39.724,88.276-88.276V306.156
	C447,272.611,429.344,242.597,402.862,225.825"/>
<path style="fill:#ECE8D8;" d="M231.607,216.115L231.607,216.115c7.062-7.945,20.303-5.297,22.952,4.414v0.883
	c4.414,13.241,22.952,12.359,25.6-0.883v-0.883c1.766-10.593,15.007-14.124,22.069-7.062l0,0c9.71,9.71,26.483-0.883,22.069-14.124
	v-0.883c-3.531-9.71,5.297-19.421,15.89-17.655h0.883c13.241,3.531,22.069-14.124,12.359-22.952h-0.883
	c-7.945-7.062-5.297-20.303,5.297-22.952h0.883c13.241-4.414,12.359-22.952-0.883-25.6h-0.883
	c-10.593-1.766-14.124-15.007-7.062-22.069l0,0c9.71-9.71-0.883-26.483-14.124-22.069h-0.883c-9.71,3.531-19.421-5.297-17.655-15.89
	v-0.883l0,0c2.648-9.71-7.945-18.538-17.655-15.89l-84.745,47.669l-17.655,34.428l9.71,97.103
	C211.303,220.528,224.544,224.059,231.607,216.115C230.724,216.115,231.607,216.115,231.607,216.115"/>
<path style="fill:#C9B693;" d="M288.103,184.335c-2.648,0-5.297-0.883-7.062-3.531l-44.138-61.793
	c-1.766-2.648-1.766-6.179-0.883-8.828s4.414-5.297,7.945-5.297h79.448c5.297,0,8.828,3.531,8.828,8.828s-3.531,8.828-8.828,8.828
	h-62.676l34.428,47.669c2.648,3.531,1.766,9.71-1.766,12.359C291.634,183.453,289.869,184.335,288.103,184.335z"/>
<path style="fill:#434C6D;" d="M67.413,16.611L67.413,16.611c7.945-15.89,28.248-21.186,43.255-12.359L216.6,79.287l-17.655,34.428
	L81.538,58.984C65.648,51.922,59.469,32.501,67.413,16.611"/>
<path style="fill:#D75D72;" d="M349.896,86.349c-7.062,7.945-3.531,20.303,7.062,22.069h0.883
	c13.241,2.648,14.124,22.069,0.883,25.6h-0.883c-9.71,2.648-13.241,15.89-5.297,22.952h0.883
	c10.593,8.828,1.766,26.483-12.359,22.952h-0.883c-10.593-2.648-19.421,7.062-15.89,17.655v0.883
	c4.414,13.241-11.476,23.834-22.069,14.124l0,0c-7.945-7.062-20.303-3.531-22.069,7.062v0.883
	c-2.648,13.241-22.069,14.124-25.6,0.883v-0.883c-2.648-9.71-15.89-13.241-22.952-5.297v0.883l0,0
	c-0.883,0.883-0.883,0.883-1.766,1.766c-4.414,37.076-2.648,73.269-2.648,105.931v7.945c0,39.724,32.662,72.386,72.386,72.386
	h31.779c39.724,0,72.386-32.662,72.386-72.386v-7.945C402.862,251.425,411.689,175.508,349.896,86.349"/>
<g>
</g>
<g>
</g>
<g>
</g>
<g>
</g>
<g>
</g>
<g>
</g>
<g>
</g>
<g>
</g>
<g>
</g>
<g>
</g>
<g>
</g>
<g>
</g>
<g>
</g>
<g>
</g>
<g>
</g>
</svg>
